<svg xmlns="http://www.w3.org/2000/svg" viewBox="0 0 800 600" width="800" height="600">
<defs><filter id="sh" x="-20%" y="-20%" width="140%" height="140%"><feDropShadow dx="0" dy="14" stdDeviation="16" flood-color="#000" flood-opacity=".22"></feDropShadow></filter>
<radialGradient id="vig" cx="50%" cy="50%" r="75%"><stop offset="60%" stop-color="#000" stop-opacity="0"></stop><stop offset="100%" stop-color="#000" stop-opacity=".18"></stop></radialGradient></defs>
<rect width="800" height="600" fill="#dfe6e8"></rect><rect x="0" y="0" width="800" height="2" fill="#cfd9dc" opacity=".35"></rect><rect x="0" y="9" width="800" height="2" fill="#cfd9dc" opacity=".35"></rect><rect x="0" y="18" width="800" height="2" fill="#cfd9dc" opacity=".35"></rect><rect x="0" y="27" width="800" height="2" fill="#cfd9dc" opacity=".35"></rect><rect x="0" y="36" width="800" height="2" fill="#cfd9dc" opacity=".35"></rect><rect x="0" y="45" width="800" height="2" fill="#cfd9dc" opacity=".35"></rect><rect x="0" y="54" width="800" height="2" fill="#cfd9dc" opacity=".35"></rect><rect x="0" y="63" width="800" height="2" fill="#cfd9dc" opacity=".35"></rect><rect x="0" y="72" width="800" height="2" fill="#cfd9dc" opacity=".35"></rect><rect x="0" y="81" width="800" height="2" fill="#cfd9dc" opacity=".35"></rect><rect x="0" y="90" width="800" height="2" fill="#cfd9dc" opacity=".35"></rect><rect x="0" y="99" width="800" height="2" fill="#cfd9dc" opacity=".35"></rect><rect x="0" y="108" width="800" height="2" fill="#cfd9dc" opacity=".35"></rect><rect x="0" y="117" width="800" height="2" fill="#cfd9dc" opacity=".35"></rect><rect x="0" y="126" width="800" height="2" fill="#cfd9dc" opacity=".35"></rect><rect x="0" y="135" width="800" height="2" fill="#cfd9dc" opacity=".35"></rect><rect x="0" y="144" width="800" height="2" fill="#cfd9dc" opacity=".35"></rect><rect x="0" y="153" width="800" height="2" fill="#cfd9dc" opacity=".35"></rect><rect x="0" y="162" width="800" height="2" fill="#cfd9dc" opacity=".35"></rect><rect x="0" y="171" width="800" height="2" fill="#cfd9dc" opacity=".35"></rect><rect x="0" y="180" width="800" height="2" fill="#cfd9dc" opacity=".35"></rect><rect x="0" y="189" width="800" height="2" fill="#cfd9dc" opacity=".35"></rect><rect x="0" y="198" width="800" height="2" fill="#cfd9dc" opacity=".35"></rect><rect x="0" y="207" width="800" height="2" fill="#cfd9dc" opacity=".35"></rect><rect x="0" y="216" width="800" height="2" fill="#cfd9dc" opacity=".35"></rect><rect x="0" y="225" width="800" height="2" fill="#cfd9dc" opacity=".35"></rect><rect x="0" y="234" width="800" height="2" fill="#cfd9dc" opacity=".35"></rect><rect x="0" y="243" width="800" height="2" fill="#cfd9dc" opacity=".35"></rect><rect x="0" y="252" width="800" height="2" fill="#cfd9dc" opacity=".35"></rect><rect x="0" y="261" width="800" height="2" fill="#cfd9dc" opacity=".35"></rect><rect x="0" y="270" width="800" height="2" fill="#cfd9dc" opacity=".35"></rect><rect x="0" y="279" width="800" height="2" fill="#cfd9dc" opacity=".35"></rect><rect x="0" y="288" width="800" height="2" fill="#cfd9dc" opacity=".35"></rect><rect x="0" y="297" width="800" height="2" fill="#cfd9dc" opacity=".35"></rect><rect x="0" y="306" width="800" height="2" fill="#cfd9dc" opacity=".35"></rect><rect x="0" y="315" width="800" height="2" fill="#cfd9dc" opacity=".35"></rect><rect x="0" y="324" width="800" height="2" fill="#cfd9dc" opacity=".35"></rect><rect x="0" y="333" width="800" height="2" fill="#cfd9dc" opacity=".35"></rect><rect x="0" y="342" width="800" height="2" fill="#cfd9dc" opacity=".35"></rect><rect x="0" y="351" width="800" height="2" fill="#cfd9dc" opacity=".35"></rect><rect x="0" y="360" width="800" height="2" fill="#cfd9dc" opacity=".35"></rect><rect x="0" y="369" width="800" height="2" fill="#cfd9dc" opacity=".35"></rect><rect x="0" y="378" width="800" height="2" fill="#cfd9dc" opacity=".35"></rect><rect x="0" y="387" width="800" height="2" fill="#cfd9dc" opacity=".35"></rect><rect x="0" y="396" width="800" height="2" fill="#cfd9dc" opacity=".35"></rect><rect x="0" y="405" width="800" height="2" fill="#cfd9dc" opacity=".35"></rect><rect x="0" y="414" width="800" height="2" fill="#cfd9dc" opacity=".35"></rect><rect x="0" y="423" width="800" height="2" fill="#cfd9dc" opacity=".35"></rect><rect x="0" y="432" width="800" height="2" fill="#cfd9dc" opacity=".35"></rect><rect x="0" y="441" width="800" height="2" fill="#cfd9dc" opacity=".35"></rect><rect x="0" y="450" width="800" height="2" fill="#cfd9dc" opacity=".35"></rect><rect x="0" y="459" width="800" height="2" fill="#cfd9dc" opacity=".35"></rect><rect x="0" y="468" width="800" height="2" fill="#cfd9dc" opacity=".35"></rect><rect x="0" y="477" width="800" height="2" fill="#cfd9dc" opacity=".35"></rect><rect x="0" y="486" width="800" height="2" fill="#cfd9dc" opacity=".35"></rect><rect x="0" y="495" width="800" height="2" fill="#cfd9dc" opacity=".35"></rect><rect x="0" y="504" width="800" height="2" fill="#cfd9dc" opacity=".35"></rect><rect x="0" y="513" width="800" height="2" fill="#cfd9dc" opacity=".35"></rect><rect x="0" y="522" width="800" height="2" fill="#cfd9dc" opacity=".35"></rect><rect x="0" y="531" width="800" height="2" fill="#cfd9dc" opacity=".35"></rect><rect x="0" y="540" width="800" height="2" fill="#cfd9dc" opacity=".35"></rect><rect x="0" y="549" width="800" height="2" fill="#cfd9dc" opacity=".35"></rect><rect x="0" y="558" width="800" height="2" fill="#cfd9dc" opacity=".35"></rect><rect x="0" y="567" width="800" height="2" fill="#cfd9dc" opacity=".35"></rect><rect x="0" y="576" width="800" height="2" fill="#cfd9dc" opacity=".35"></rect><rect x="0" y="585" width="800" height="2" fill="#cfd9dc" opacity=".35"></rect><rect x="0" y="594" width="800" height="2" fill="#cfd9dc" opacity=".35"></rect><g filter="url(#sh)"><circle cx="400" cy="300" r="240" fill="#fbfbf9"></circle></g><circle cx="400" cy="300" r="200" fill="#f1f1ee"></circle><ellipse cx="356" cy="234" rx="11" ry="9" fill="#2c1a2e"></ellipse><circle cx="353" cy="231" r="2.5" fill="#fff" opacity=".4"></circle><g transform="translate(377 398) rotate(45)"><path d="M-30,0 A30,30 0 0 1 30,0 Z" fill="#d42f22"></path><path d="M-22,-2 A22,22 0 0 1 22,-2 Z" fill="#e85a3f"></path><circle cx="-8" cy="-8" r="2.5" fill="#f7d38a"></circle><circle cx="6" cy="-10" r="2.5" fill="#f7d38a"></circle></g><g transform="translate(424 287) rotate(302)"><path d="M-26,0 A26,26 0 0 0 26,0 Z" fill="#3c7a2e"></path><path d="M-21,1 A21,21 0 0 0 21,1 Z" fill="#cfe3a4"></path><circle cx="-7" cy="8" r="2" fill="#e8f0cf"></circle><circle cx="7" cy="8" r="2" fill="#e8f0cf"></circle></g><g transform="translate(267 302) rotate(13)"><path d="M-30,0 A30,30 0 0 1 30,0 Z" fill="#d42f22"></path><path d="M-22,-2 A22,22 0 0 1 22,-2 Z" fill="#e85a3f"></path><circle cx="-8" cy="-8" r="2.5" fill="#f7d38a"></circle><circle cx="6" cy="-10" r="2.5" fill="#f7d38a"></circle></g><g transform="translate(257 289) rotate(60)"><path d="M-26,0 A26,26 0 0 0 26,0 Z" fill="#3c7a2e"></path><path d="M-21,1 A21,21 0 0 0 21,1 Z" fill="#cfe3a4"></path><circle cx="-7" cy="8" r="2" fill="#e8f0cf"></circle><circle cx="7" cy="8" r="2" fill="#e8f0cf"></circle></g><g transform="translate(397 162) rotate(241)"><path d="M-26,0 A26,26 0 0 0 26,0 Z" fill="#3c7a2e"></path><path d="M-21,1 A21,21 0 0 0 21,1 Z" fill="#cfe3a4"></path><circle cx="-7" cy="8" r="2" fill="#e8f0cf"></circle><circle cx="7" cy="8" r="2" fill="#e8f0cf"></circle></g><ellipse cx="408" cy="201" rx="11" ry="9" fill="#2c1a2e"></ellipse><circle cx="405" cy="198" r="2.5" fill="#fff" opacity=".4"></circle><g transform="translate(424 342) rotate(134)"><path d="M-30,0 A30,30 0 0 1 30,0 Z" fill="#d42f22"></path><path d="M-22,-2 A22,22 0 0 1 22,-2 Z" fill="#e85a3f"></path><circle cx="-8" cy="-8" r="2.5" fill="#f7d38a"></circle><circle cx="6" cy="-10" r="2.5" fill="#f7d38a"></circle></g><g transform="translate(380 171) rotate(33)"><path d="M-30,0 A30,30 0 0 1 30,0 Z" fill="#d42f22"></path><path d="M-22,-2 A22,22 0 0 1 22,-2 Z" fill="#e85a3f"></path><circle cx="-8" cy="-8" r="2.5" fill="#f7d38a"></circle><circle cx="6" cy="-10" r="2.5" fill="#f7d38a"></circle></g><g transform="translate(272 311) rotate(132)"><path d="M-30,0 A30,30 0 0 1 30,0 Z" fill="#d42f22"></path><path d="M-22,-2 A22,22 0 0 1 22,-2 Z" fill="#e85a3f"></path><circle cx="-8" cy="-8" r="2.5" fill="#f7d38a"></circle><circle cx="6" cy="-10" r="2.5" fill="#f7d38a"></circle></g><g transform="translate(340 388) rotate(252)"><path d="M-30,0 A30,30 0 0 1 30,0 Z" fill="#d42f22"></path><path d="M-22,-2 A22,22 0 0 1 22,-2 Z" fill="#e85a3f"></path><circle cx="-8" cy="-8" r="2.5" fill="#f7d38a"></circle><circle cx="6" cy="-10" r="2.5" fill="#f7d38a"></circle></g><ellipse cx="408" cy="434" rx="11" ry="9" fill="#2c1a2e"></ellipse><circle cx="405" cy="431" r="2.5" fill="#fff" opacity=".4"></circle><g transform="translate(479 322) rotate(315)"><path d="M-26,0 A26,26 0 0 0 26,0 Z" fill="#3c7a2e"></path><path d="M-21,1 A21,21 0 0 0 21,1 Z" fill="#cfe3a4"></path><circle cx="-7" cy="8" r="2" fill="#e8f0cf"></circle><circle cx="7" cy="8" r="2" fill="#e8f0cf"></circle></g><ellipse cx="302" cy="209" rx="21" ry="12" fill="none" stroke="#8e3b78" stroke-width="5" transform="rotate(87 302 209)"></ellipse><ellipse cx="425" cy="234" rx="18" ry="13" fill="none" stroke="#8e3b78" stroke-width="5" transform="rotate(66 425 234)"></ellipse><ellipse cx="390" cy="295" rx="11" ry="9" fill="#2c1a2e"></ellipse><circle cx="387" cy="292" r="2.5" fill="#fff" opacity=".4"></circle><g transform="translate(385 315) rotate(318)"><path d="M-26,0 A26,26 0 0 0 26,0 Z" fill="#3c7a2e"></path><path d="M-21,1 A21,21 0 0 0 21,1 Z" fill="#cfe3a4"></path><circle cx="-7" cy="8" r="2" fill="#e8f0cf"></circle><circle cx="7" cy="8" r="2" fill="#e8f0cf"></circle></g><g transform="translate(344 359) rotate(214)"><path d="M-26,0 A26,26 0 0 0 26,0 Z" fill="#3c7a2e"></path><path d="M-21,1 A21,21 0 0 0 21,1 Z" fill="#cfe3a4"></path><circle cx="-7" cy="8" r="2" fill="#e8f0cf"></circle><circle cx="7" cy="8" r="2" fill="#e8f0cf"></circle></g><ellipse cx="489" cy="402" rx="21" ry="13" fill="none" stroke="#8e3b78" stroke-width="5" transform="rotate(65 489 402)"></ellipse><g transform="translate(343 395) rotate(65)"><path d="M-30,0 A30,30 0 0 1 30,0 Z" fill="#d42f22"></path><path d="M-22,-2 A22,22 0 0 1 22,-2 Z" fill="#e85a3f"></path><circle cx="-8" cy="-8" r="2.5" fill="#f7d38a"></circle><circle cx="6" cy="-10" r="2.5" fill="#f7d38a"></circle></g><ellipse cx="432" cy="202" rx="11" ry="9" fill="#2c1a2e"></ellipse><circle cx="429" cy="199" r="2.5" fill="#fff" opacity=".4"></circle><g transform="translate(347 195) rotate(234)"><path d="M-30,0 A30,30 0 0 1 30,0 Z" fill="#d42f22"></path><path d="M-22,-2 A22,22 0 0 1 22,-2 Z" fill="#e85a3f"></path><circle cx="-8" cy="-8" r="2.5" fill="#f7d38a"></circle><circle cx="6" cy="-10" r="2.5" fill="#f7d38a"></circle></g><g transform="translate(312 354) rotate(154)"><path d="M-30,0 A30,30 0 0 1 30,0 Z" fill="#d42f22"></path><path d="M-22,-2 A22,22 0 0 1 22,-2 Z" fill="#e85a3f"></path><circle cx="-8" cy="-8" r="2.5" fill="#f7d38a"></circle><circle cx="6" cy="-10" r="2.5" fill="#f7d38a"></circle></g><ellipse cx="419" cy="427" rx="26" ry="14" fill="none" stroke="#8e3b78" stroke-width="5" transform="rotate(111 419 427)"></ellipse><ellipse cx="412" cy="168" rx="11" ry="9" fill="#2c1a2e"></ellipse><circle cx="409" cy="165" r="2.5" fill="#fff" opacity=".4"></circle><g transform="translate(423 269) rotate(351)"><path d="M-30,0 A30,30 0 0 1 30,0 Z" fill="#d42f22"></path><path d="M-22,-2 A22,22 0 0 1 22,-2 Z" fill="#e85a3f"></path><circle cx="-8" cy="-8" r="2.5" fill="#f7d38a"></circle><circle cx="6" cy="-10" r="2.5" fill="#f7d38a"></circle></g><g transform="translate(337 193) rotate(42)"><path d="M-30,0 A30,30 0 0 1 30,0 Z" fill="#d42f22"></path><path d="M-22,-2 A22,22 0 0 1 22,-2 Z" fill="#e85a3f"></path><circle cx="-8" cy="-8" r="2.5" fill="#f7d38a"></circle><circle cx="6" cy="-10" r="2.5" fill="#f7d38a"></circle></g><g transform="translate(480 189) rotate(89)"><path d="M-26,0 A26,26 0 0 0 26,0 Z" fill="#3c7a2e"></path><path d="M-21,1 A21,21 0 0 0 21,1 Z" fill="#cfe3a4"></path><circle cx="-7" cy="8" r="2" fill="#e8f0cf"></circle><circle cx="7" cy="8" r="2" fill="#e8f0cf"></circle></g><ellipse cx="492" cy="205" rx="11" ry="9" fill="#2c1a2e"></ellipse><circle cx="489" cy="202" r="2.5" fill="#fff" opacity=".4"></circle><ellipse cx="302" cy="188" rx="22" ry="10" fill="none" stroke="#8e3b78" stroke-width="5" transform="rotate(157 302 188)"></ellipse><g transform="translate(367 411) rotate(29)"><path d="M-26,0 A26,26 0 0 0 26,0 Z" fill="#3c7a2e"></path><path d="M-21,1 A21,21 0 0 0 21,1 Z" fill="#cfe3a4"></path><circle cx="-7" cy="8" r="2" fill="#e8f0cf"></circle><circle cx="7" cy="8" r="2" fill="#e8f0cf"></circle></g><g transform="translate(513 369) rotate(104)"><path d="M-26,0 A26,26 0 0 0 26,0 Z" fill="#3c7a2e"></path><path d="M-21,1 A21,21 0 0 0 21,1 Z" fill="#cfe3a4"></path><circle cx="-7" cy="8" r="2" fill="#e8f0cf"></circle><circle cx="7" cy="8" r="2" fill="#e8f0cf"></circle></g><g transform="translate(344 326) rotate(163)"><path d="M-30,0 A30,30 0 0 1 30,0 Z" fill="#d42f22"></path><path d="M-22,-2 A22,22 0 0 1 22,-2 Z" fill="#e85a3f"></path><circle cx="-8" cy="-8" r="2.5" fill="#f7d38a"></circle><circle cx="6" cy="-10" r="2.5" fill="#f7d38a"></circle></g><ellipse cx="362" cy="194" rx="11" ry="9" fill="#2c1a2e"></ellipse><circle cx="359" cy="191" r="2.5" fill="#fff" opacity=".4"></circle><g transform="translate(533 292) rotate(239)"><path d="M-26,0 A26,26 0 0 0 26,0 Z" fill="#3c7a2e"></path><path d="M-21,1 A21,21 0 0 0 21,1 Z" fill="#cfe3a4"></path><circle cx="-7" cy="8" r="2" fill="#e8f0cf"></circle><circle cx="7" cy="8" r="2" fill="#e8f0cf"></circle></g><ellipse cx="449" cy="175" rx="29" ry="16" fill="none" stroke="#8e3b78" stroke-width="5" transform="rotate(157 449 175)"></ellipse><ellipse cx="331" cy="257" rx="11" ry="9" fill="#2c1a2e"></ellipse><circle cx="328" cy="254" r="2.5" fill="#fff" opacity=".4"></circle><ellipse cx="318" cy="205" rx="22" ry="10" fill="none" stroke="#8e3b78" stroke-width="5" transform="rotate(0 318 205)"></ellipse><g transform="translate(323 322) rotate(189)"><path d="M-30,0 A30,30 0 0 1 30,0 Z" fill="#d42f22"></path><path d="M-22,-2 A22,22 0 0 1 22,-2 Z" fill="#e85a3f"></path><circle cx="-8" cy="-8" r="2.5" fill="#f7d38a"></circle><circle cx="6" cy="-10" r="2.5" fill="#f7d38a"></circle></g><g transform="translate(268 360) rotate(233)"><path d="M-26,0 A26,26 0 0 0 26,0 Z" fill="#3c7a2e"></path><path d="M-21,1 A21,21 0 0 0 21,1 Z" fill="#cfe3a4"></path><circle cx="-7" cy="8" r="2" fill="#e8f0cf"></circle><circle cx="7" cy="8" r="2" fill="#e8f0cf"></circle></g><g transform="translate(414 169) rotate(21)"><path d="M-30,0 A30,30 0 0 1 30,0 Z" fill="#d42f22"></path><path d="M-22,-2 A22,22 0 0 1 22,-2 Z" fill="#e85a3f"></path><circle cx="-8" cy="-8" r="2.5" fill="#f7d38a"></circle><circle cx="6" cy="-10" r="2.5" fill="#f7d38a"></circle></g><g transform="translate(335 266) rotate(241)"><path d="M-26,0 A26,26 0 0 0 26,0 Z" fill="#3c7a2e"></path><path d="M-21,1 A21,21 0 0 0 21,1 Z" fill="#cfe3a4"></path><circle cx="-7" cy="8" r="2" fill="#e8f0cf"></circle><circle cx="7" cy="8" r="2" fill="#e8f0cf"></circle></g><ellipse cx="483" cy="270" rx="23" ry="11" fill="none" stroke="#8e3b78" stroke-width="5" transform="rotate(114 483 270)"></ellipse><g transform="translate(375 377) rotate(55)"><path d="M-26,0 A26,26 0 0 0 26,0 Z" fill="#3c7a2e"></path><path d="M-21,1 A21,21 0 0 0 21,1 Z" fill="#cfe3a4"></path><circle cx="-7" cy="8" r="2" fill="#e8f0cf"></circle><circle cx="7" cy="8" r="2" fill="#e8f0cf"></circle></g><g transform="translate(317 338) rotate(341)"><path d="M-30,0 A30,30 0 0 1 30,0 Z" fill="#d42f22"></path><path d="M-22,-2 A22,22 0 0 1 22,-2 Z" fill="#e85a3f"></path><circle cx="-8" cy="-8" r="2.5" fill="#f7d38a"></circle><circle cx="6" cy="-10" r="2.5" fill="#f7d38a"></circle></g><g transform="rotate(-14 400 290)"><rect x="330" y="240" width="140" height="96" rx="6" fill="#f8f6ef"></rect><rect x="330" y="240" width="140" height="96" rx="6" fill="none" stroke="#e6e1d2" stroke-width="3"></rect></g><circle cx="425" cy="355" r="1.8" fill="#4d6b2a"></circle><circle cx="468" cy="292" r="1.8" fill="#4d6b2a"></circle><circle cx="431" cy="340" r="1.8" fill="#4d6b2a"></circle><circle cx="317" cy="319" r="1.8" fill="#4d6b2a"></circle><circle cx="482" cy="337" r="1.8" fill="#4d6b2a"></circle><circle cx="450" cy="292" r="1.8" fill="#4d6b2a"></circle><circle cx="336" cy="338" r="1.8" fill="#4d6b2a"></circle><circle cx="367" cy="340" r="1.8" fill="#4d6b2a"></circle><circle cx="494" cy="279" r="1.8" fill="#4d6b2a"></circle><circle cx="380" cy="362" r="1.8" fill="#4d6b2a"></circle><circle cx="445" cy="246" r="1.8" fill="#4d6b2a"></circle><circle cx="325" cy="243" r="1.8" fill="#4d6b2a"></circle><circle cx="481" cy="341" r="1.8" fill="#4d6b2a"></circle><circle cx="329" cy="344" r="1.8" fill="#4d6b2a"></circle><circle cx="496" cy="319" r="1.8" fill="#4d6b2a"></circle><circle cx="370" cy="302" r="1.8" fill="#4d6b2a"></circle><circle cx="326" cy="222" r="1.8" fill="#4d6b2a"></circle><circle cx="494" cy="317" r="1.8" fill="#4d6b2a"></circle><circle cx="405" cy="360" r="1.8" fill="#4d6b2a"></circle><circle cx="387" cy="351" r="1.8" fill="#4d6b2a"></circle><circle cx="465" cy="252" r="1.8" fill="#4d6b2a"></circle><circle cx="350" cy="264" r="1.8" fill="#4d6b2a"></circle><circle cx="348" cy="308" r="1.8" fill="#4d6b2a"></circle><circle cx="352" cy="283" r="1.8" fill="#4d6b2a"></circle><circle cx="326" cy="357" r="1.8" fill="#4d6b2a"></circle><circle cx="371" cy="289" r="1.8" fill="#4d6b2a"></circle><circle cx="417" cy="356" r="1.8" fill="#4d6b2a"></circle><circle cx="384" cy="358" r="1.8" fill="#4d6b2a"></circle><circle cx="400" cy="300" r="1.8" fill="#4d6b2a"></circle><circle cx="405" cy="223" r="1.8" fill="#4d6b2a"></circle><circle cx="388" cy="247" r="1.8" fill="#4d6b2a"></circle><circle cx="301" cy="340" r="1.8" fill="#4d6b2a"></circle><circle cx="334" cy="291" r="1.8" fill="#4d6b2a"></circle><circle cx="445" cy="303" r="1.8" fill="#4d6b2a"></circle><circle cx="365" cy="298" r="1.8" fill="#4d6b2a"></circle><circle cx="411" cy="338" r="1.8" fill="#4d6b2a"></circle><circle cx="321" cy="304" r="1.8" fill="#4d6b2a"></circle><circle cx="350" cy="262" r="1.8" fill="#4d6b2a"></circle><circle cx="454" cy="296" r="1.8" fill="#4d6b2a"></circle><circle cx="412" cy="334" r="1.8" fill="#4d6b2a"></circle><circle cx="482" cy="286" r="1.8" fill="#4d6b2a"></circle><circle cx="423" cy="296" r="1.8" fill="#4d6b2a"></circle><circle cx="402" cy="324" r="1.8" fill="#4d6b2a"></circle><circle cx="390" cy="300" r="1.8" fill="#4d6b2a"></circle><circle cx="396" cy="361" r="1.8" fill="#4d6b2a"></circle><circle cx="440" cy="351" r="1.8" fill="#4d6b2a"></circle><circle cx="488" cy="259" r="1.8" fill="#4d6b2a"></circle><circle cx="412" cy="361" r="1.8" fill="#4d6b2a"></circle><circle cx="468" cy="241" r="1.8" fill="#4d6b2a"></circle><circle cx="324" cy="286" r="1.8" fill="#4d6b2a"></circle><g filter="url(#sh)"><path d="M90,470 l70,-40 l50,70 z" fill="#f2d24a"></path></g><circle cx="680" cy="110" r="30" fill="#2c1a2e" opacity=".9"></circle><rect width="800" height="600" fill="url(#vig)"></rect></svg>